<mxfile host="Electron" modified="2023-12-19T07:16:51.757Z" agent="Mozilla/5.0 (Windows NT 10.0; Win64; x64) AppleWebKit/537.36 (KHTML, like Gecko) draw.io/21.5.1 Chrome/112.0.5615.204 Electron/24.6.0 Safari/537.36" etag="tyPJ6Yvw2pGbLuMAWzoK" version="21.5.1" type="device">
  <diagram name="Страница 1" id="h2UtBX076tHWL-dfzH1R">
    <mxGraphModel dx="1474" dy="897" grid="1" gridSize="10" guides="1" tooltips="1" connect="1" arrows="1" fold="1" page="1" pageScale="1" pageWidth="1100" pageHeight="850" math="0" shadow="0">
      <root>
        <mxCell id="0" />
        <mxCell id="1" parent="0" />
        <mxCell id="x_HaE-We4SfUDi70UK6L-13" value="Берем промпт настройки&lt;br&gt;&lt;br&gt;Берем 10 последних сообщений" style="rounded=0;whiteSpace=wrap;html=1;align=left;horizontal=1;verticalAlign=top;spacing=7;spacingLeft=4;" parent="1" vertex="1">
          <mxGeometry x="240" y="360" width="635" height="420" as="geometry" />
        </mxCell>
        <mxCell id="x_HaE-We4SfUDi70UK6L-11" style="edgeStyle=orthogonalEdgeStyle;rounded=0;orthogonalLoop=1;jettySize=auto;html=1;" parent="1" source="x_HaE-We4SfUDi70UK6L-1" target="x_HaE-We4SfUDi70UK6L-2" edge="1">
          <mxGeometry relative="1" as="geometry" />
        </mxCell>
        <mxCell id="x_HaE-We4SfUDi70UK6L-1" value="Поступает сообщение" style="rounded=0;whiteSpace=wrap;html=1;" parent="1" vertex="1">
          <mxGeometry x="285" y="120" width="150" height="40" as="geometry" />
        </mxCell>
        <mxCell id="x_HaE-We4SfUDi70UK6L-6" style="edgeStyle=orthogonalEdgeStyle;rounded=0;orthogonalLoop=1;jettySize=auto;html=1;" parent="1" source="x_HaE-We4SfUDi70UK6L-2" target="x_HaE-We4SfUDi70UK6L-4" edge="1">
          <mxGeometry relative="1" as="geometry" />
        </mxCell>
        <mxCell id="x_HaE-We4SfUDi70UK6L-8" value="Да" style="edgeLabel;html=1;align=center;verticalAlign=middle;resizable=0;points=[];" parent="x_HaE-We4SfUDi70UK6L-6" vertex="1" connectable="0">
          <mxGeometry x="-0.2567" y="-1" relative="1" as="geometry">
            <mxPoint as="offset" />
          </mxGeometry>
        </mxCell>
        <mxCell id="x_HaE-We4SfUDi70UK6L-7" style="edgeStyle=orthogonalEdgeStyle;rounded=0;orthogonalLoop=1;jettySize=auto;html=1;entryX=0;entryY=0.5;entryDx=0;entryDy=0;" parent="1" target="x_HaE-We4SfUDi70UK6L-5" edge="1">
          <mxGeometry relative="1" as="geometry">
            <mxPoint x="359.9999999999998" y="250" as="sourcePoint" />
            <mxPoint x="285" y="70" as="targetPoint" />
            <Array as="points">
              <mxPoint x="360" y="260" />
              <mxPoint x="265" y="260" />
              <mxPoint x="265" y="60" />
            </Array>
          </mxGeometry>
        </mxCell>
        <mxCell id="x_HaE-We4SfUDi70UK6L-9" value="Нет" style="edgeLabel;html=1;align=center;verticalAlign=middle;resizable=0;points=[];" parent="x_HaE-We4SfUDi70UK6L-7" vertex="1" connectable="0">
          <mxGeometry x="-0.6818" y="1" relative="1" as="geometry">
            <mxPoint as="offset" />
          </mxGeometry>
        </mxCell>
        <mxCell id="x_HaE-We4SfUDi70UK6L-2" value="Есть ли у собеседника бизнес аккаунт" style="rounded=0;whiteSpace=wrap;html=1;" parent="1" vertex="1">
          <mxGeometry x="285" y="200" width="150" height="40" as="geometry" />
        </mxCell>
        <mxCell id="x_HaE-We4SfUDi70UK6L-4" value="Начинаем составлять запрос" style="rounded=0;whiteSpace=wrap;html=1;" parent="1" vertex="1">
          <mxGeometry x="285" y="320" width="150" height="40" as="geometry" />
        </mxCell>
        <mxCell id="x_HaE-We4SfUDi70UK6L-10" style="edgeStyle=orthogonalEdgeStyle;rounded=0;orthogonalLoop=1;jettySize=auto;html=1;" parent="1" source="x_HaE-We4SfUDi70UK6L-5" target="x_HaE-We4SfUDi70UK6L-1" edge="1">
          <mxGeometry relative="1" as="geometry" />
        </mxCell>
        <mxCell id="x_HaE-We4SfUDi70UK6L-5" value="Ожидаение" style="rounded=0;whiteSpace=wrap;html=1;" parent="1" vertex="1">
          <mxGeometry x="285" y="40" width="150" height="40" as="geometry" />
        </mxCell>
        <mxCell id="x_HaE-We4SfUDi70UK6L-12" value="БД&lt;br&gt;Сообщения" style="shape=cylinder3;whiteSpace=wrap;html=1;boundedLbl=1;backgroundOutline=1;size=15;" parent="1" vertex="1">
          <mxGeometry x="255" y="470" width="110" height="100" as="geometry" />
        </mxCell>
        <mxCell id="x_HaE-We4SfUDi70UK6L-22" style="edgeStyle=orthogonalEdgeStyle;rounded=0;orthogonalLoop=1;jettySize=auto;html=1;entryX=0;entryY=0.5;entryDx=0;entryDy=0;" parent="1" source="x_HaE-We4SfUDi70UK6L-15" target="x_HaE-We4SfUDi70UK6L-21" edge="1">
          <mxGeometry relative="1" as="geometry" />
        </mxCell>
        <mxCell id="x_HaE-We4SfUDi70UK6L-27" value="Нет" style="edgeLabel;html=1;align=center;verticalAlign=middle;resizable=0;points=[];" parent="x_HaE-We4SfUDi70UK6L-22" vertex="1" connectable="0">
          <mxGeometry x="-0.065" y="1" relative="1" as="geometry">
            <mxPoint as="offset" />
          </mxGeometry>
        </mxCell>
        <mxCell id="x_HaE-We4SfUDi70UK6L-23" style="edgeStyle=orthogonalEdgeStyle;rounded=0;orthogonalLoop=1;jettySize=auto;html=1;" parent="1" source="x_HaE-We4SfUDi70UK6L-15" target="x_HaE-We4SfUDi70UK6L-20" edge="1">
          <mxGeometry relative="1" as="geometry" />
        </mxCell>
        <mxCell id="x_HaE-We4SfUDi70UK6L-26" value="да" style="edgeLabel;html=1;align=center;verticalAlign=middle;resizable=0;points=[];" parent="x_HaE-We4SfUDi70UK6L-23" vertex="1" connectable="0">
          <mxGeometry x="-0.1024" y="-1" relative="1" as="geometry">
            <mxPoint as="offset" />
          </mxGeometry>
        </mxCell>
        <mxCell id="x_HaE-We4SfUDi70UK6L-15" value="Сообщение мое?" style="rhombus;whiteSpace=wrap;html=1;" parent="1" vertex="1">
          <mxGeometry x="385" y="580" width="180" height="80" as="geometry" />
        </mxCell>
        <mxCell id="x_HaE-We4SfUDi70UK6L-31" style="edgeStyle=orthogonalEdgeStyle;rounded=0;orthogonalLoop=1;jettySize=auto;html=1;entryX=1;entryY=0.5;entryDx=0;entryDy=0;" parent="1" source="x_HaE-We4SfUDi70UK6L-17" target="x_HaE-We4SfUDi70UK6L-29" edge="1">
          <mxGeometry relative="1" as="geometry">
            <Array as="points">
              <mxPoint x="855" y="440" />
              <mxPoint x="855" y="740" />
            </Array>
          </mxGeometry>
        </mxCell>
        <mxCell id="x_HaE-We4SfUDi70UK6L-33" style="edgeStyle=orthogonalEdgeStyle;rounded=0;orthogonalLoop=1;jettySize=auto;html=1;" parent="1" source="x_HaE-We4SfUDi70UK6L-17" target="x_HaE-We4SfUDi70UK6L-32" edge="1">
          <mxGeometry relative="1" as="geometry" />
        </mxCell>
        <mxCell id="x_HaE-We4SfUDi70UK6L-17" value="Запрос" style="rounded=0;whiteSpace=wrap;html=1;" parent="1" vertex="1">
          <mxGeometry x="655" y="410" width="120" height="60" as="geometry" />
        </mxCell>
        <mxCell id="x_HaE-We4SfUDi70UK6L-24" style="edgeStyle=orthogonalEdgeStyle;rounded=0;orthogonalLoop=1;jettySize=auto;html=1;entryX=0;entryY=0.5;entryDx=0;entryDy=0;" parent="1" source="x_HaE-We4SfUDi70UK6L-20" target="x_HaE-We4SfUDi70UK6L-17" edge="1">
          <mxGeometry relative="1" as="geometry" />
        </mxCell>
        <mxCell id="x_HaE-We4SfUDi70UK6L-20" value="{&lt;br style=&quot;font-size: 8px;&quot;&gt;&amp;nbsp; &amp;nbsp; &amp;nbsp; &quot;message&quot;:&quot;Сообщение&quot;,&lt;br style=&quot;font-size: 8px;&quot;&gt;&amp;nbsp; &amp;nbsp; &amp;nbsp; &quot;role&quot;:&quot;user&quot;&lt;br style=&quot;font-size: 8px;&quot;&gt;}" style="rounded=1;whiteSpace=wrap;html=1;align=left;spacingLeft=16;fontSize=8;" parent="1" vertex="1">
          <mxGeometry x="400" y="470" width="150" height="60" as="geometry" />
        </mxCell>
        <mxCell id="x_HaE-We4SfUDi70UK6L-25" style="edgeStyle=orthogonalEdgeStyle;rounded=0;orthogonalLoop=1;jettySize=auto;html=1;" parent="1" source="x_HaE-We4SfUDi70UK6L-21" target="x_HaE-We4SfUDi70UK6L-17" edge="1">
          <mxGeometry relative="1" as="geometry" />
        </mxCell>
        <mxCell id="x_HaE-We4SfUDi70UK6L-21" value="{&lt;br style=&quot;font-size: 8px;&quot;&gt;&amp;nbsp; &amp;nbsp; &amp;nbsp; &quot;message&quot;:&quot;Сообщение&quot;,&lt;br style=&quot;font-size: 8px;&quot;&gt;&amp;nbsp; &amp;nbsp; &amp;nbsp; &quot;role&quot;:&quot;assistant&quot;&lt;br style=&quot;font-size: 8px;&quot;&gt;}" style="rounded=1;whiteSpace=wrap;html=1;align=left;spacingLeft=16;fontSize=8;" parent="1" vertex="1">
          <mxGeometry x="645" y="590" width="150" height="60" as="geometry" />
        </mxCell>
        <mxCell id="x_HaE-We4SfUDi70UK6L-30" style="edgeStyle=orthogonalEdgeStyle;rounded=0;orthogonalLoop=1;jettySize=auto;html=1;" parent="1" source="x_HaE-We4SfUDi70UK6L-29" target="x_HaE-We4SfUDi70UK6L-15" edge="1">
          <mxGeometry relative="1" as="geometry" />
        </mxCell>
        <mxCell id="x_HaE-We4SfUDi70UK6L-29" value="Сообщение" style="rounded=0;whiteSpace=wrap;html=1;" parent="1" vertex="1">
          <mxGeometry x="345" y="710" width="120" height="60" as="geometry" />
        </mxCell>
        <mxCell id="x_HaE-We4SfUDi70UK6L-35" style="edgeStyle=orthogonalEdgeStyle;rounded=0;orthogonalLoop=1;jettySize=auto;html=1;" parent="1" source="x_HaE-We4SfUDi70UK6L-32" target="x_HaE-We4SfUDi70UK6L-34" edge="1">
          <mxGeometry relative="1" as="geometry" />
        </mxCell>
        <mxCell id="x_HaE-We4SfUDi70UK6L-38" value="После генерации" style="edgeLabel;html=1;align=center;verticalAlign=middle;resizable=0;points=[];" parent="x_HaE-We4SfUDi70UK6L-35" vertex="1" connectable="0">
          <mxGeometry x="0.2714" y="2" relative="1" as="geometry">
            <mxPoint x="2" y="8" as="offset" />
          </mxGeometry>
        </mxCell>
        <mxCell id="x_HaE-We4SfUDi70UK6L-32" value="Отправляем запрос GPT" style="rounded=0;whiteSpace=wrap;html=1;" parent="1" vertex="1">
          <mxGeometry x="640" y="260" width="150" height="40" as="geometry" />
        </mxCell>
        <mxCell id="x_HaE-We4SfUDi70UK6L-40" style="edgeStyle=orthogonalEdgeStyle;rounded=0;orthogonalLoop=1;jettySize=auto;html=1;" parent="1" source="x_HaE-We4SfUDi70UK6L-34" target="x_HaE-We4SfUDi70UK6L-39" edge="1">
          <mxGeometry relative="1" as="geometry" />
        </mxCell>
        <mxCell id="x_HaE-We4SfUDi70UK6L-34" value="Сохраняем в БД" style="rounded=0;whiteSpace=wrap;html=1;" parent="1" vertex="1">
          <mxGeometry x="640" y="160" width="150" height="40" as="geometry" />
        </mxCell>
        <mxCell id="x_HaE-We4SfUDi70UK6L-41" style="edgeStyle=orthogonalEdgeStyle;rounded=0;orthogonalLoop=1;jettySize=auto;html=1;" parent="1" source="x_HaE-We4SfUDi70UK6L-39" target="x_HaE-We4SfUDi70UK6L-5" edge="1">
          <mxGeometry relative="1" as="geometry" />
        </mxCell>
        <mxCell id="x_HaE-We4SfUDi70UK6L-39" value="Отправляеим сообщение в комнату" style="rounded=0;whiteSpace=wrap;html=1;" parent="1" vertex="1">
          <mxGeometry x="640" y="80" width="150" height="40" as="geometry" />
        </mxCell>
        <mxCell id="2baQlV7Le76XYm0lxkwF-1" value="Комнаты" style="rounded=0;whiteSpace=wrap;html=1;" vertex="1" parent="1">
          <mxGeometry x="160" y="920" width="150" height="40" as="geometry" />
        </mxCell>
        <mxCell id="2baQlV7Le76XYm0lxkwF-13" style="edgeStyle=orthogonalEdgeStyle;rounded=0;orthogonalLoop=1;jettySize=auto;html=1;" edge="1" parent="1" source="2baQlV7Le76XYm0lxkwF-2" target="2baQlV7Le76XYm0lxkwF-12">
          <mxGeometry relative="1" as="geometry" />
        </mxCell>
        <mxCell id="2baQlV7Le76XYm0lxkwF-2" value="Запрашиваемые&lt;br&gt;&lt;br&gt;данные" style="rounded=0;whiteSpace=wrap;html=1;" vertex="1" parent="1">
          <mxGeometry x="160" y="1080" width="110" height="160" as="geometry" />
        </mxCell>
        <mxCell id="2baQlV7Le76XYm0lxkwF-3" value="" style="endArrow=classic;html=1;rounded=0;entryX=0;entryY=0.25;entryDx=0;entryDy=0;" edge="1" parent="1" target="2baQlV7Le76XYm0lxkwF-2">
          <mxGeometry width="50" height="50" relative="1" as="geometry">
            <mxPoint x="10" y="1120" as="sourcePoint" />
            <mxPoint x="210" y="1150" as="targetPoint" />
          </mxGeometry>
        </mxCell>
        <mxCell id="2baQlV7Le76XYm0lxkwF-4" value="Login пользователя&amp;nbsp;" style="edgeLabel;html=1;align=center;verticalAlign=middle;resizable=0;points=[];" vertex="1" connectable="0" parent="2baQlV7Le76XYm0lxkwF-3">
          <mxGeometry x="-0.0687" relative="1" as="geometry">
            <mxPoint as="offset" />
          </mxGeometry>
        </mxCell>
        <mxCell id="2baQlV7Le76XYm0lxkwF-6" value="" style="endArrow=classic;html=1;rounded=0;entryX=0;entryY=0.75;entryDx=0;entryDy=0;" edge="1" parent="1" target="2baQlV7Le76XYm0lxkwF-2">
          <mxGeometry width="50" height="50" relative="1" as="geometry">
            <mxPoint x="10" y="1200" as="sourcePoint" />
            <mxPoint x="140" y="1200" as="targetPoint" />
          </mxGeometry>
        </mxCell>
        <mxCell id="2baQlV7Le76XYm0lxkwF-7" value="Login партнера" style="edgeLabel;html=1;align=center;verticalAlign=middle;resizable=0;points=[];" vertex="1" connectable="0" parent="2baQlV7Le76XYm0lxkwF-6">
          <mxGeometry x="-0.0687" relative="1" as="geometry">
            <mxPoint as="offset" />
          </mxGeometry>
        </mxCell>
        <mxCell id="2baQlV7Le76XYm0lxkwF-8" value="Возвращаемые&lt;br&gt;&lt;br&gt;данные" style="rounded=0;whiteSpace=wrap;html=1;" vertex="1" parent="1">
          <mxGeometry x="680" y="1080" width="110" height="160" as="geometry" />
        </mxCell>
        <mxCell id="2baQlV7Le76XYm0lxkwF-9" value="" style="endArrow=classic;html=1;rounded=0;entryX=0;entryY=0.25;entryDx=0;entryDy=0;" edge="1" parent="1" source="2baQlV7Le76XYm0lxkwF-8">
          <mxGeometry width="50" height="50" relative="1" as="geometry">
            <mxPoint x="790" y="1159.71" as="sourcePoint" />
            <mxPoint x="940" y="1159.71" as="targetPoint" />
          </mxGeometry>
        </mxCell>
        <mxCell id="2baQlV7Le76XYm0lxkwF-10" value="slug комнаты" style="edgeLabel;html=1;align=center;verticalAlign=middle;resizable=0;points=[];" vertex="1" connectable="0" parent="2baQlV7Le76XYm0lxkwF-9">
          <mxGeometry x="-0.0687" relative="1" as="geometry">
            <mxPoint as="offset" />
          </mxGeometry>
        </mxCell>
        <mxCell id="2baQlV7Le76XYm0lxkwF-14" style="edgeStyle=orthogonalEdgeStyle;rounded=0;orthogonalLoop=1;jettySize=auto;html=1;" edge="1" parent="1" source="2baQlV7Le76XYm0lxkwF-11" target="2baQlV7Le76XYm0lxkwF-12">
          <mxGeometry relative="1" as="geometry" />
        </mxCell>
        <mxCell id="2baQlV7Le76XYm0lxkwF-11" value="Комната" style="shape=cylinder3;whiteSpace=wrap;html=1;boundedLbl=1;backgroundOutline=1;size=15;" vertex="1" parent="1">
          <mxGeometry x="497.5" y="930" width="120" height="80" as="geometry" />
        </mxCell>
        <mxCell id="2baQlV7Le76XYm0lxkwF-18" style="edgeStyle=orthogonalEdgeStyle;rounded=0;orthogonalLoop=1;jettySize=auto;html=1;" edge="1" parent="1" source="2baQlV7Le76XYm0lxkwF-12" target="2baQlV7Le76XYm0lxkwF-16">
          <mxGeometry relative="1" as="geometry" />
        </mxCell>
        <mxCell id="2baQlV7Le76XYm0lxkwF-19" value="Нет" style="edgeLabel;html=1;align=center;verticalAlign=middle;resizable=0;points=[];" vertex="1" connectable="0" parent="2baQlV7Le76XYm0lxkwF-18">
          <mxGeometry x="-0.2966" y="2" relative="1" as="geometry">
            <mxPoint y="2" as="offset" />
          </mxGeometry>
        </mxCell>
        <mxCell id="2baQlV7Le76XYm0lxkwF-21" style="edgeStyle=orthogonalEdgeStyle;rounded=0;orthogonalLoop=1;jettySize=auto;html=1;" edge="1" parent="1" source="2baQlV7Le76XYm0lxkwF-12" target="2baQlV7Le76XYm0lxkwF-20">
          <mxGeometry relative="1" as="geometry" />
        </mxCell>
        <mxCell id="2baQlV7Le76XYm0lxkwF-22" value="Да" style="edgeLabel;html=1;align=center;verticalAlign=middle;resizable=0;points=[];" vertex="1" connectable="0" parent="2baQlV7Le76XYm0lxkwF-21">
          <mxGeometry x="0.1989" y="1" relative="1" as="geometry">
            <mxPoint x="-24" as="offset" />
          </mxGeometry>
        </mxCell>
        <mxCell id="2baQlV7Le76XYm0lxkwF-12" value="Связка пользователей уже есть?" style="rhombus;whiteSpace=wrap;html=1;fontSize=9;spacing=21;" vertex="1" parent="1">
          <mxGeometry x="330" y="1120" width="150" height="80" as="geometry" />
        </mxCell>
        <mxCell id="2baQlV7Le76XYm0lxkwF-17" style="edgeStyle=orthogonalEdgeStyle;rounded=0;orthogonalLoop=1;jettySize=auto;html=1;" edge="1" parent="1" source="2baQlV7Le76XYm0lxkwF-16" target="2baQlV7Le76XYm0lxkwF-11">
          <mxGeometry relative="1" as="geometry" />
        </mxCell>
        <mxCell id="2baQlV7Le76XYm0lxkwF-23" style="edgeStyle=orthogonalEdgeStyle;rounded=0;orthogonalLoop=1;jettySize=auto;html=1;" edge="1" parent="1" source="2baQlV7Le76XYm0lxkwF-16" target="2baQlV7Le76XYm0lxkwF-8">
          <mxGeometry relative="1" as="geometry" />
        </mxCell>
        <mxCell id="2baQlV7Le76XYm0lxkwF-16" value="Запись данных" style="rounded=1;whiteSpace=wrap;html=1;fontSize=10;" vertex="1" parent="1">
          <mxGeometry x="497.5" y="1050" width="120" height="40" as="geometry" />
        </mxCell>
        <mxCell id="2baQlV7Le76XYm0lxkwF-20" value="Возврат ошибки" style="rounded=1;whiteSpace=wrap;html=1;fontSize=10;" vertex="1" parent="1">
          <mxGeometry x="460" y="1260" width="120" height="40" as="geometry" />
        </mxCell>
        <mxCell id="2baQlV7Le76XYm0lxkwF-31" value="Пользователь авторизация" style="rounded=0;whiteSpace=wrap;html=1;" vertex="1" parent="1">
          <mxGeometry x="130" y="1740" width="240" height="40" as="geometry" />
        </mxCell>
        <mxCell id="2baQlV7Le76XYm0lxkwF-42" style="edgeStyle=orthogonalEdgeStyle;rounded=0;orthogonalLoop=1;jettySize=auto;html=1;" edge="1" parent="1" source="2baQlV7Le76XYm0lxkwF-32" target="2baQlV7Le76XYm0lxkwF-41">
          <mxGeometry relative="1" as="geometry" />
        </mxCell>
        <mxCell id="2baQlV7Le76XYm0lxkwF-32" value="Запрашиваемые&lt;br&gt;&lt;br&gt;данные" style="rounded=0;whiteSpace=wrap;html=1;" vertex="1" parent="1">
          <mxGeometry x="160" y="1900" width="110" height="80" as="geometry" />
        </mxCell>
        <mxCell id="2baQlV7Le76XYm0lxkwF-33" value="" style="endArrow=classic;html=1;rounded=0;entryX=0;entryY=0.25;entryDx=0;entryDy=0;" edge="1" parent="1" target="2baQlV7Le76XYm0lxkwF-32">
          <mxGeometry width="50" height="50" relative="1" as="geometry">
            <mxPoint x="10" y="1920" as="sourcePoint" />
            <mxPoint x="210" y="1970" as="targetPoint" />
          </mxGeometry>
        </mxCell>
        <mxCell id="2baQlV7Le76XYm0lxkwF-34" value="Login пользователя&amp;nbsp;" style="edgeLabel;html=1;align=center;verticalAlign=middle;resizable=0;points=[];" vertex="1" connectable="0" parent="2baQlV7Le76XYm0lxkwF-33">
          <mxGeometry x="-0.0687" relative="1" as="geometry">
            <mxPoint as="offset" />
          </mxGeometry>
        </mxCell>
        <mxCell id="2baQlV7Le76XYm0lxkwF-35" value="" style="endArrow=classic;html=1;rounded=0;entryX=0;entryY=0.75;entryDx=0;entryDy=0;" edge="1" parent="1" target="2baQlV7Le76XYm0lxkwF-32">
          <mxGeometry width="50" height="50" relative="1" as="geometry">
            <mxPoint x="10" y="1960" as="sourcePoint" />
            <mxPoint x="140" y="2020" as="targetPoint" />
          </mxGeometry>
        </mxCell>
        <mxCell id="2baQlV7Le76XYm0lxkwF-36" value="Пароль пользователя" style="edgeLabel;html=1;align=center;verticalAlign=middle;resizable=0;points=[];" vertex="1" connectable="0" parent="2baQlV7Le76XYm0lxkwF-35">
          <mxGeometry x="-0.0687" relative="1" as="geometry">
            <mxPoint as="offset" />
          </mxGeometry>
        </mxCell>
        <mxCell id="2baQlV7Le76XYm0lxkwF-37" value="Возвращаемые&lt;br&gt;&lt;br&gt;данные" style="rounded=0;whiteSpace=wrap;html=1;" vertex="1" parent="1">
          <mxGeometry x="800" y="1900" width="110" height="80" as="geometry" />
        </mxCell>
        <mxCell id="2baQlV7Le76XYm0lxkwF-38" value="" style="endArrow=classic;html=1;rounded=0;" edge="1" parent="1" source="2baQlV7Le76XYm0lxkwF-37">
          <mxGeometry width="50" height="50" relative="1" as="geometry">
            <mxPoint x="910" y="1979.71" as="sourcePoint" />
            <mxPoint x="1080" y="1940" as="targetPoint" />
          </mxGeometry>
        </mxCell>
        <mxCell id="2baQlV7Le76XYm0lxkwF-39" value="Токен + Статуст 200" style="edgeLabel;html=1;align=center;verticalAlign=middle;resizable=0;points=[];" vertex="1" connectable="0" parent="2baQlV7Le76XYm0lxkwF-38">
          <mxGeometry x="-0.0687" relative="1" as="geometry">
            <mxPoint as="offset" />
          </mxGeometry>
        </mxCell>
        <mxCell id="2baQlV7Le76XYm0lxkwF-44" style="edgeStyle=orthogonalEdgeStyle;rounded=0;orthogonalLoop=1;jettySize=auto;html=1;" edge="1" parent="1" source="2baQlV7Le76XYm0lxkwF-40" target="2baQlV7Le76XYm0lxkwF-41">
          <mxGeometry relative="1" as="geometry" />
        </mxCell>
        <mxCell id="2baQlV7Le76XYm0lxkwF-40" value="Пользователь" style="shape=cylinder3;whiteSpace=wrap;html=1;boundedLbl=1;backgroundOutline=1;size=15;" vertex="1" parent="1">
          <mxGeometry x="497.5" y="1740" width="120" height="80" as="geometry" />
        </mxCell>
        <mxCell id="2baQlV7Le76XYm0lxkwF-100" style="edgeStyle=orthogonalEdgeStyle;rounded=0;orthogonalLoop=1;jettySize=auto;html=1;" edge="1" parent="1" source="2baQlV7Le76XYm0lxkwF-41" target="2baQlV7Le76XYm0lxkwF-99">
          <mxGeometry relative="1" as="geometry" />
        </mxCell>
        <mxCell id="2baQlV7Le76XYm0lxkwF-101" value="Да" style="edgeLabel;html=1;align=center;verticalAlign=middle;resizable=0;points=[];" vertex="1" connectable="0" parent="2baQlV7Le76XYm0lxkwF-100">
          <mxGeometry x="-0.0684" relative="1" as="geometry">
            <mxPoint x="-15" y="-11" as="offset" />
          </mxGeometry>
        </mxCell>
        <mxCell id="2baQlV7Le76XYm0lxkwF-41" value="Существует ли пользователь с указанным логином?" style="rhombus;whiteSpace=wrap;html=1;fontSize=9;spacing=21;" vertex="1" parent="1">
          <mxGeometry x="330" y="1900" width="160" height="80" as="geometry" />
        </mxCell>
        <mxCell id="2baQlV7Le76XYm0lxkwF-48" style="edgeStyle=orthogonalEdgeStyle;rounded=0;orthogonalLoop=1;jettySize=auto;html=1;exitX=0.5;exitY=1;exitDx=0;exitDy=0;" edge="1" parent="1" target="2baQlV7Le76XYm0lxkwF-51" source="2baQlV7Le76XYm0lxkwF-41">
          <mxGeometry relative="1" as="geometry">
            <mxPoint x="413.75" y="1980" as="sourcePoint" />
          </mxGeometry>
        </mxCell>
        <mxCell id="2baQlV7Le76XYm0lxkwF-49" value="Нет" style="edgeLabel;html=1;align=center;verticalAlign=middle;resizable=0;points=[];" vertex="1" connectable="0" parent="2baQlV7Le76XYm0lxkwF-48">
          <mxGeometry x="0.1989" y="1" relative="1" as="geometry">
            <mxPoint x="-24" as="offset" />
          </mxGeometry>
        </mxCell>
        <mxCell id="2baQlV7Le76XYm0lxkwF-51" value="Возврат ошибки" style="rounded=1;whiteSpace=wrap;html=1;fontSize=10;" vertex="1" parent="1">
          <mxGeometry x="468.75" y="2040" width="120" height="40" as="geometry" />
        </mxCell>
        <mxCell id="2baQlV7Le76XYm0lxkwF-54" value="Пользователь выход из системы" style="rounded=0;whiteSpace=wrap;html=1;" vertex="1" parent="1">
          <mxGeometry x="130" y="2160" width="240" height="40" as="geometry" />
        </mxCell>
        <mxCell id="2baQlV7Le76XYm0lxkwF-55" style="edgeStyle=orthogonalEdgeStyle;rounded=0;orthogonalLoop=1;jettySize=auto;html=1;" edge="1" parent="1" source="2baQlV7Le76XYm0lxkwF-56" target="2baQlV7Le76XYm0lxkwF-66">
          <mxGeometry relative="1" as="geometry" />
        </mxCell>
        <mxCell id="2baQlV7Le76XYm0lxkwF-56" value="Запрашиваемые&lt;br&gt;&lt;br&gt;данные" style="rounded=0;whiteSpace=wrap;html=1;" vertex="1" parent="1">
          <mxGeometry x="160" y="2320" width="110" height="80" as="geometry" />
        </mxCell>
        <mxCell id="2baQlV7Le76XYm0lxkwF-59" value="" style="endArrow=classic;html=1;rounded=0;entryX=0;entryY=0.5;entryDx=0;entryDy=0;" edge="1" parent="1" target="2baQlV7Le76XYm0lxkwF-56">
          <mxGeometry width="50" height="50" relative="1" as="geometry">
            <mxPoint x="10" y="2360" as="sourcePoint" />
            <mxPoint x="140" y="2440" as="targetPoint" />
          </mxGeometry>
        </mxCell>
        <mxCell id="2baQlV7Le76XYm0lxkwF-60" value="Токен пользователя" style="edgeLabel;html=1;align=center;verticalAlign=middle;resizable=0;points=[];" vertex="1" connectable="0" parent="2baQlV7Le76XYm0lxkwF-59">
          <mxGeometry x="-0.0687" relative="1" as="geometry">
            <mxPoint as="offset" />
          </mxGeometry>
        </mxCell>
        <mxCell id="2baQlV7Le76XYm0lxkwF-61" value="Возвращаемые&lt;br&gt;&lt;br&gt;данные" style="rounded=0;whiteSpace=wrap;html=1;" vertex="1" parent="1">
          <mxGeometry x="690" y="2320" width="110" height="80" as="geometry" />
        </mxCell>
        <mxCell id="2baQlV7Le76XYm0lxkwF-62" value="" style="endArrow=classic;html=1;rounded=0;" edge="1" parent="1" source="2baQlV7Le76XYm0lxkwF-61">
          <mxGeometry width="50" height="50" relative="1" as="geometry">
            <mxPoint x="790" y="2399.71" as="sourcePoint" />
            <mxPoint x="930" y="2360" as="targetPoint" />
          </mxGeometry>
        </mxCell>
        <mxCell id="2baQlV7Le76XYm0lxkwF-63" value="Статуст 200" style="edgeLabel;html=1;align=center;verticalAlign=middle;resizable=0;points=[];" vertex="1" connectable="0" parent="2baQlV7Le76XYm0lxkwF-62">
          <mxGeometry x="-0.0687" relative="1" as="geometry">
            <mxPoint as="offset" />
          </mxGeometry>
        </mxCell>
        <mxCell id="2baQlV7Le76XYm0lxkwF-64" style="edgeStyle=orthogonalEdgeStyle;rounded=0;orthogonalLoop=1;jettySize=auto;html=1;" edge="1" parent="1" source="2baQlV7Le76XYm0lxkwF-65" target="2baQlV7Le76XYm0lxkwF-66">
          <mxGeometry relative="1" as="geometry" />
        </mxCell>
        <mxCell id="2baQlV7Le76XYm0lxkwF-111" style="edgeStyle=orthogonalEdgeStyle;rounded=0;orthogonalLoop=1;jettySize=auto;html=1;exitX=0.145;exitY=1;exitDx=0;exitDy=-4.35;exitPerimeter=0;entryX=0.25;entryY=0;entryDx=0;entryDy=0;" edge="1" parent="1" source="2baQlV7Le76XYm0lxkwF-65" target="2baQlV7Le76XYm0lxkwF-107">
          <mxGeometry relative="1" as="geometry" />
        </mxCell>
        <mxCell id="2baQlV7Le76XYm0lxkwF-65" value="Токены" style="shape=cylinder3;whiteSpace=wrap;html=1;boundedLbl=1;backgroundOutline=1;size=15;" vertex="1" parent="1">
          <mxGeometry x="497.5" y="2160" width="120" height="80" as="geometry" />
        </mxCell>
        <mxCell id="2baQlV7Le76XYm0lxkwF-108" style="edgeStyle=orthogonalEdgeStyle;rounded=0;orthogonalLoop=1;jettySize=auto;html=1;" edge="1" parent="1" source="2baQlV7Le76XYm0lxkwF-66" target="2baQlV7Le76XYm0lxkwF-107">
          <mxGeometry relative="1" as="geometry" />
        </mxCell>
        <mxCell id="2baQlV7Le76XYm0lxkwF-113" value="Да" style="edgeLabel;html=1;align=center;verticalAlign=middle;resizable=0;points=[];" vertex="1" connectable="0" parent="2baQlV7Le76XYm0lxkwF-108">
          <mxGeometry x="-0.1333" y="-3" relative="1" as="geometry">
            <mxPoint x="3" y="-3" as="offset" />
          </mxGeometry>
        </mxCell>
        <mxCell id="2baQlV7Le76XYm0lxkwF-66" value="Существует ли пользователь с указанным токеном?" style="rhombus;whiteSpace=wrap;html=1;fontSize=9;spacing=21;" vertex="1" parent="1">
          <mxGeometry x="310" y="2320" width="160" height="80" as="geometry" />
        </mxCell>
        <mxCell id="2baQlV7Le76XYm0lxkwF-69" style="edgeStyle=orthogonalEdgeStyle;rounded=0;orthogonalLoop=1;jettySize=auto;html=1;exitX=0.5;exitY=1;exitDx=0;exitDy=0;" edge="1" parent="1" source="2baQlV7Le76XYm0lxkwF-66" target="2baQlV7Le76XYm0lxkwF-74">
          <mxGeometry relative="1" as="geometry">
            <mxPoint x="413.75" y="2400" as="sourcePoint" />
          </mxGeometry>
        </mxCell>
        <mxCell id="2baQlV7Le76XYm0lxkwF-70" value="Нет" style="edgeLabel;html=1;align=center;verticalAlign=middle;resizable=0;points=[];" vertex="1" connectable="0" parent="2baQlV7Le76XYm0lxkwF-69">
          <mxGeometry x="0.1989" y="1" relative="1" as="geometry">
            <mxPoint x="-24" as="offset" />
          </mxGeometry>
        </mxCell>
        <mxCell id="2baQlV7Le76XYm0lxkwF-74" value="Возврат ошибки" style="rounded=1;whiteSpace=wrap;html=1;fontSize=10;" vertex="1" parent="1">
          <mxGeometry x="468.75" y="2460" width="120" height="40" as="geometry" />
        </mxCell>
        <mxCell id="2baQlV7Le76XYm0lxkwF-75" value="Пользователь регистрация" style="rounded=0;whiteSpace=wrap;html=1;" vertex="1" parent="1">
          <mxGeometry x="130" y="1340" width="240" height="40" as="geometry" />
        </mxCell>
        <mxCell id="2baQlV7Le76XYm0lxkwF-76" style="edgeStyle=orthogonalEdgeStyle;rounded=0;orthogonalLoop=1;jettySize=auto;html=1;" edge="1" parent="1" source="2baQlV7Le76XYm0lxkwF-77" target="2baQlV7Le76XYm0lxkwF-87">
          <mxGeometry relative="1" as="geometry" />
        </mxCell>
        <mxCell id="2baQlV7Le76XYm0lxkwF-77" value="Запрашиваемые&lt;br&gt;&lt;br&gt;данные" style="rounded=0;whiteSpace=wrap;html=1;" vertex="1" parent="1">
          <mxGeometry x="160" y="1500" width="110" height="80" as="geometry" />
        </mxCell>
        <mxCell id="2baQlV7Le76XYm0lxkwF-78" value="" style="endArrow=classic;html=1;rounded=0;entryX=0;entryY=0.25;entryDx=0;entryDy=0;" edge="1" parent="1" target="2baQlV7Le76XYm0lxkwF-77">
          <mxGeometry width="50" height="50" relative="1" as="geometry">
            <mxPoint x="10" y="1520" as="sourcePoint" />
            <mxPoint x="210" y="1570" as="targetPoint" />
          </mxGeometry>
        </mxCell>
        <mxCell id="2baQlV7Le76XYm0lxkwF-79" value="Login пользователя&amp;nbsp;" style="edgeLabel;html=1;align=center;verticalAlign=middle;resizable=0;points=[];" vertex="1" connectable="0" parent="2baQlV7Le76XYm0lxkwF-78">
          <mxGeometry x="-0.0687" relative="1" as="geometry">
            <mxPoint as="offset" />
          </mxGeometry>
        </mxCell>
        <mxCell id="2baQlV7Le76XYm0lxkwF-80" value="" style="endArrow=classic;html=1;rounded=0;entryX=0;entryY=0.75;entryDx=0;entryDy=0;" edge="1" parent="1" target="2baQlV7Le76XYm0lxkwF-77">
          <mxGeometry width="50" height="50" relative="1" as="geometry">
            <mxPoint x="10" y="1560" as="sourcePoint" />
            <mxPoint x="140" y="1620" as="targetPoint" />
          </mxGeometry>
        </mxCell>
        <mxCell id="2baQlV7Le76XYm0lxkwF-81" value="Пароль пользователя" style="edgeLabel;html=1;align=center;verticalAlign=middle;resizable=0;points=[];" vertex="1" connectable="0" parent="2baQlV7Le76XYm0lxkwF-80">
          <mxGeometry x="-0.0687" relative="1" as="geometry">
            <mxPoint as="offset" />
          </mxGeometry>
        </mxCell>
        <mxCell id="2baQlV7Le76XYm0lxkwF-82" value="Возвращаемые&lt;br&gt;&lt;br&gt;данные" style="rounded=0;whiteSpace=wrap;html=1;" vertex="1" parent="1">
          <mxGeometry x="680" y="1500" width="110" height="80" as="geometry" />
        </mxCell>
        <mxCell id="2baQlV7Le76XYm0lxkwF-83" value="" style="endArrow=classic;html=1;rounded=0;" edge="1" parent="1" source="2baQlV7Le76XYm0lxkwF-82">
          <mxGeometry width="50" height="50" relative="1" as="geometry">
            <mxPoint x="790" y="1579.71" as="sourcePoint" />
            <mxPoint x="930" y="1540" as="targetPoint" />
          </mxGeometry>
        </mxCell>
        <mxCell id="2baQlV7Le76XYm0lxkwF-84" value="Статуст 201" style="edgeLabel;html=1;align=center;verticalAlign=middle;resizable=0;points=[];" vertex="1" connectable="0" parent="2baQlV7Le76XYm0lxkwF-83">
          <mxGeometry x="-0.0687" relative="1" as="geometry">
            <mxPoint as="offset" />
          </mxGeometry>
        </mxCell>
        <mxCell id="2baQlV7Le76XYm0lxkwF-85" style="edgeStyle=orthogonalEdgeStyle;rounded=0;orthogonalLoop=1;jettySize=auto;html=1;" edge="1" parent="1" source="2baQlV7Le76XYm0lxkwF-86" target="2baQlV7Le76XYm0lxkwF-87">
          <mxGeometry relative="1" as="geometry" />
        </mxCell>
        <mxCell id="2baQlV7Le76XYm0lxkwF-86" value="Пользователь" style="shape=cylinder3;whiteSpace=wrap;html=1;boundedLbl=1;backgroundOutline=1;size=15;" vertex="1" parent="1">
          <mxGeometry x="497.5" y="1340" width="120" height="80" as="geometry" />
        </mxCell>
        <mxCell id="2baQlV7Le76XYm0lxkwF-87" value="Существует ли пользователь с указанным логином?" style="rhombus;whiteSpace=wrap;html=1;fontSize=9;spacing=21;" vertex="1" parent="1">
          <mxGeometry x="330" y="1500" width="160" height="80" as="geometry" />
        </mxCell>
        <mxCell id="2baQlV7Le76XYm0lxkwF-88" style="edgeStyle=orthogonalEdgeStyle;rounded=0;orthogonalLoop=1;jettySize=auto;html=1;" edge="1" parent="1" target="2baQlV7Le76XYm0lxkwF-94">
          <mxGeometry relative="1" as="geometry">
            <mxPoint x="488.75" y="1540" as="sourcePoint" />
          </mxGeometry>
        </mxCell>
        <mxCell id="2baQlV7Le76XYm0lxkwF-89" value="Нет" style="edgeLabel;html=1;align=center;verticalAlign=middle;resizable=0;points=[];" vertex="1" connectable="0" parent="2baQlV7Le76XYm0lxkwF-88">
          <mxGeometry x="-0.2966" y="2" relative="1" as="geometry">
            <mxPoint y="2" as="offset" />
          </mxGeometry>
        </mxCell>
        <mxCell id="2baQlV7Le76XYm0lxkwF-90" style="edgeStyle=orthogonalEdgeStyle;rounded=0;orthogonalLoop=1;jettySize=auto;html=1;exitX=0.5;exitY=1;exitDx=0;exitDy=0;" edge="1" parent="1" source="2baQlV7Le76XYm0lxkwF-87" target="2baQlV7Le76XYm0lxkwF-95">
          <mxGeometry relative="1" as="geometry">
            <mxPoint x="413.75" y="1580" as="sourcePoint" />
          </mxGeometry>
        </mxCell>
        <mxCell id="2baQlV7Le76XYm0lxkwF-91" value="Да" style="edgeLabel;html=1;align=center;verticalAlign=middle;resizable=0;points=[];" vertex="1" connectable="0" parent="2baQlV7Le76XYm0lxkwF-90">
          <mxGeometry x="0.1989" y="1" relative="1" as="geometry">
            <mxPoint x="-24" as="offset" />
          </mxGeometry>
        </mxCell>
        <mxCell id="2baQlV7Le76XYm0lxkwF-92" style="edgeStyle=orthogonalEdgeStyle;rounded=0;orthogonalLoop=1;jettySize=auto;html=1;" edge="1" parent="1" source="2baQlV7Le76XYm0lxkwF-94" target="2baQlV7Le76XYm0lxkwF-86">
          <mxGeometry relative="1" as="geometry" />
        </mxCell>
        <mxCell id="2baQlV7Le76XYm0lxkwF-93" style="edgeStyle=orthogonalEdgeStyle;rounded=0;orthogonalLoop=1;jettySize=auto;html=1;" edge="1" parent="1" source="2baQlV7Le76XYm0lxkwF-94" target="2baQlV7Le76XYm0lxkwF-82">
          <mxGeometry relative="1" as="geometry" />
        </mxCell>
        <mxCell id="2baQlV7Le76XYm0lxkwF-94" value="Запись данных" style="rounded=1;whiteSpace=wrap;html=1;fontSize=10;" vertex="1" parent="1">
          <mxGeometry x="497.5" y="1460" width="120" height="40" as="geometry" />
        </mxCell>
        <mxCell id="2baQlV7Le76XYm0lxkwF-95" value="Возврат ошибки" style="rounded=1;whiteSpace=wrap;html=1;fontSize=10;" vertex="1" parent="1">
          <mxGeometry x="468.75" y="1640" width="120" height="40" as="geometry" />
        </mxCell>
        <mxCell id="2baQlV7Le76XYm0lxkwF-96" value="" style="endArrow=none;html=1;rounded=0;" edge="1" parent="1">
          <mxGeometry width="50" height="50" relative="1" as="geometry">
            <mxPoint y="1320" as="sourcePoint" />
            <mxPoint x="1090" y="1320" as="targetPoint" />
          </mxGeometry>
        </mxCell>
        <mxCell id="2baQlV7Le76XYm0lxkwF-97" value="" style="endArrow=none;html=1;rounded=0;" edge="1" parent="1">
          <mxGeometry width="50" height="50" relative="1" as="geometry">
            <mxPoint y="880" as="sourcePoint" />
            <mxPoint x="1090" y="880" as="targetPoint" />
          </mxGeometry>
        </mxCell>
        <mxCell id="2baQlV7Le76XYm0lxkwF-98" value="Токены" style="shape=cylinder3;whiteSpace=wrap;html=1;boundedLbl=1;backgroundOutline=1;size=15;" vertex="1" parent="1">
          <mxGeometry x="670" y="1740" width="120" height="80" as="geometry" />
        </mxCell>
        <mxCell id="2baQlV7Le76XYm0lxkwF-103" style="edgeStyle=orthogonalEdgeStyle;rounded=0;orthogonalLoop=1;jettySize=auto;html=1;" edge="1" parent="1" source="2baQlV7Le76XYm0lxkwF-99" target="2baQlV7Le76XYm0lxkwF-102">
          <mxGeometry relative="1" as="geometry" />
        </mxCell>
        <mxCell id="2baQlV7Le76XYm0lxkwF-105" style="edgeStyle=orthogonalEdgeStyle;rounded=0;orthogonalLoop=1;jettySize=auto;html=1;" edge="1" parent="1" source="2baQlV7Le76XYm0lxkwF-99" target="2baQlV7Le76XYm0lxkwF-37">
          <mxGeometry relative="1" as="geometry" />
        </mxCell>
        <mxCell id="2baQlV7Le76XYm0lxkwF-99" value="Генерация токена" style="rounded=1;whiteSpace=wrap;html=1;fontSize=10;" vertex="1" parent="1">
          <mxGeometry x="580" y="1950" width="120" height="40" as="geometry" />
        </mxCell>
        <mxCell id="2baQlV7Le76XYm0lxkwF-104" style="edgeStyle=orthogonalEdgeStyle;rounded=0;orthogonalLoop=1;jettySize=auto;html=1;" edge="1" parent="1" source="2baQlV7Le76XYm0lxkwF-102" target="2baQlV7Le76XYm0lxkwF-98">
          <mxGeometry relative="1" as="geometry" />
        </mxCell>
        <mxCell id="2baQlV7Le76XYm0lxkwF-102" value="Запись токена" style="rounded=1;whiteSpace=wrap;html=1;fontSize=10;" vertex="1" parent="1">
          <mxGeometry x="617.5" y="1850" width="120" height="40" as="geometry" />
        </mxCell>
        <mxCell id="2baQlV7Le76XYm0lxkwF-109" style="edgeStyle=orthogonalEdgeStyle;rounded=0;orthogonalLoop=1;jettySize=auto;html=1;" edge="1" parent="1" source="2baQlV7Le76XYm0lxkwF-107" target="2baQlV7Le76XYm0lxkwF-61">
          <mxGeometry relative="1" as="geometry" />
        </mxCell>
        <mxCell id="2baQlV7Le76XYm0lxkwF-112" style="edgeStyle=orthogonalEdgeStyle;rounded=0;orthogonalLoop=1;jettySize=auto;html=1;exitX=0.75;exitY=0;exitDx=0;exitDy=0;entryX=0.855;entryY=1;entryDx=0;entryDy=-4.35;entryPerimeter=0;" edge="1" parent="1" source="2baQlV7Le76XYm0lxkwF-107" target="2baQlV7Le76XYm0lxkwF-65">
          <mxGeometry relative="1" as="geometry" />
        </mxCell>
        <mxCell id="2baQlV7Le76XYm0lxkwF-107" value="Удаляем токен" style="rounded=1;whiteSpace=wrap;html=1;fontSize=10;" vertex="1" parent="1">
          <mxGeometry x="535" y="2340" width="120" height="40" as="geometry" />
        </mxCell>
      </root>
    </mxGraphModel>
  </diagram>
</mxfile>
